<?xml version="1.0"?>
<svg width="350" height="400" xmlns="http://www.w3.org/2000/svg">

 <g>
  <title>background</title>
  <rect fill="none" id="canvas_background" height="402" width="352" y="-1" x="-1"/>
 </g>
 <g>
  <title>Layer 1</title>
  <path id="svg_124" d="m114.445061,95.916183q-0.912979,4.108528 -6.162727,7.304001l-25.107399,14.379662q-5.249741,2.967285 -10.042953,2.054306q-4.793251,-1.141251 -8.901733,-5.706238l0,-0.228256l-55.92103,-63.681522q-4.564981,-5.478035 -6.619211,-10.043018q-4.564985,-10.499405 5.934458,-16.662163l36.291658,-21.227145q14.836174,-8.216986 26.705101,11.868913l41.7696,72.355043q2.967255,5.477959 2.054237,9.586418" fill="#DBDBDB"/>
  <path id="svg_131" d="m130.928574,298.382935l-14.607933,25.107422q-2.967209,5.249756 -7.532196,6.847473l-10.727737,-0.456451l0,-0.228271l-80.343742,-27.161621q-6.619211,-2.510773 -10.727669,-5.249786q-9.129966,-6.847473 -3.195475,-17.575165l20.770617,-36.519852q8.673512,-14.379745 28.987675,-2.96727l72.583218,41.541382q5.249771,3.423737 6.619278,7.532196q1.141235,3.880249 -1.826035,9.129944" fill="#DBDBDB"/>
  <path id="svg_345" d="m274.573151,362.793854q-4.336731,35.606842 -40.400055,36.976349l-172.556408,0q-39.71534,-5.021484 -43.823864,-36.976349l0,-2.739044q0,-39.715332 37.43285,-67.789978q37.661114,-28.074646 90.84322,-28.074646q53.410278,0 91.071411,28.074646q37.432846,28.074646 37.432846,67.789978l0,2.739044m-119.830826,-60.257813q0,6.847473 5.021515,11.640717q4.793243,5.021484 11.640717,5.021484q6.847473,0 11.868927,-5.021484q4.793243,-4.793243 4.793243,-11.640717q0,-6.847473 -4.793243,-11.868958q-5.021454,-4.793243 -11.868927,-4.793243q-6.847473,0 -11.640717,4.793243q-5.021515,5.021484 -5.021515,11.868958m-67.561768,15.520935q-4.793175,-4.793213 -11.640656,-4.793213q-6.847473,0 -11.640713,4.793213q-5.021519,5.021484 -5.021519,11.868958q0,6.619232 5.021519,11.640717q4.79324,4.793213 11.640713,4.793213q6.847481,0 11.640656,-4.793213q5.021515,-5.021484 5.021515,-11.640717q0,-6.847473 -5.021515,-11.868958m112.983353,10.499512q3.651993,3.651947 8.673492,3.651947q5.021454,0 8.673462,-3.651947q3.651993,-3.652008 3.651993,-8.673492q0,-5.021454 -3.651993,-8.673492q-3.652008,-3.651978 -8.673462,-3.651978q-5.0215,0 -8.673492,3.651978q-3.651932,3.652039 -3.651932,8.673492q0,5.021484 3.651932,8.673492" fill="#80BE1F"/>
  <path id="svg_346" d="m200.16391,328.556488q-3.651932,-3.652008 -3.651932,-8.673492q0,-5.021454 3.651932,-8.673492q3.651993,-3.651978 8.673492,-3.651978q5.021454,0 8.673462,3.651978q3.651993,3.652039 3.651993,8.673492q0,5.021484 -3.651993,8.673492q-3.652008,3.651947 -8.673462,3.651947q-5.0215,0 -8.673492,-3.651947m-45.421585,-26.020447q0,-6.847473 5.021515,-11.868958q4.793243,-4.793243 11.640717,-4.793243q6.847473,0 11.868927,4.793243q4.793243,5.021484 4.793243,11.868958q0,6.847473 -4.793243,11.640717q-5.021454,5.021484 -11.868927,5.021484q-6.847473,0 -11.640717,-5.021484q-5.021515,-4.793243 -5.021515,-11.640717" fill="#8BCB27"/>
  <path id="svg_136" d="m198.946869,325.683044l-0.456512,0.228271l-10.042953,0.684784q-4.793259,-1.826019 -7.760468,-6.847473l-14.608002,-24.879211q-2.967209,-5.477966 -1.825974,-9.586426q1.369522,-4.108521 6.619217,-7.075745l72.126755,-41.769562q20.314178,-11.640732 29.215881,3.19548l20.998932,36.519852q5.934509,10.042969 -3.423737,17.118683l-10.727722,5.477966l-80.115417,26.93338" fill="#FFFFFF"/>
  <path id="svg_347" d="m87.180557,318.056976q5.021515,5.021484 5.021515,11.868958q0,6.619232 -5.021515,11.640717q-4.793175,4.793213 -11.640656,4.793213q-6.847473,0 -11.640713,-4.793213q-5.021519,-5.021484 -5.021519,-11.640717q0,-6.847473 5.021519,-11.868958q4.79324,-4.793213 11.640713,-4.793213q6.847481,0 11.640656,4.793213" fill="#5F8C19"/>
  <path id="svg_348" d="m76.808403,100.68631q-6.847473,0 -11.640686,4.793251q-5.0215,5.021477 -5.0215,11.86895q0,6.619247 5.0215,11.640717q4.793213,4.793213 11.640686,4.793213q6.847473,0 11.640724,-4.793213q5.021469,-5.021469 5.021469,-11.640717q0,-6.847473 -5.021469,-11.86895q-4.793251,-4.793251 -11.640724,-4.793251m61.39904,-10.499435q4.793228,5.021469 11.640701,5.021469q6.847473,0 11.868942,-5.021469q4.793259,-4.793251 4.793259,-11.640724q0,-6.847473 -4.793259,-11.86895q-5.021469,-4.793224 -11.868942,-4.793224q-6.847473,0 -11.640701,4.793224q-5.0215,5.021477 -5.0215,11.86895q0,6.847473 5.0215,11.640724m49.073578,-6.619232q-5.021515,0 -8.673477,3.651985q-3.651993,3.651993 -3.651993,8.67347q0,5.021477 3.651993,8.673477q3.651962,3.651962 8.673477,3.651962q5.021469,0 8.673431,-3.651962q3.652023,-3.652 3.652023,-8.673477q0,-5.021477 -3.652023,-8.67347q-3.651962,-3.651985 -8.673431,-3.651985m-52.040817,-51.356064q45.42157,0 77.604721,32.183121q31.954849,31.954887 31.954849,77.376465l0,3.195511q-3.651932,40.628357 -34.465591,42.226105l-147.22073,0q-34.009085,-5.706238 -37.432829,-42.226105l0,-3.195511q0,-45.421577 31.954893,-77.376465q32.183086,-32.183121 77.604687,-32.183121" fill="#80BE1F"/>
  <path id="svg_350" d="m186.278244,82.564865q5.021469,0 8.673431,3.651985q3.652023,3.651993 3.652023,8.67347q0,5.021477 -3.652023,8.673477q-3.651962,3.651962 -8.673431,3.651962q-5.021515,0 -8.673477,-3.651962q-3.651993,-3.652 -3.651993,-8.673477q0,-5.021477 3.651993,-8.67347q3.651962,-3.651985 8.673477,-3.651985m-49.073578,6.619232q-5.0215,-4.793251 -5.0215,-11.640724q0,-6.847473 5.0215,-11.86895q4.793228,-4.793221 11.640701,-4.793221q6.847473,0 11.868942,4.793221q4.793259,5.021477 4.793259,11.86895q0,6.847473 -4.793259,11.640724q-5.021469,5.021469 -11.868942,5.021469q-6.847473,0 -11.640701,-5.021469" fill="#8BCB27"/>
  <path id="svg_129" d="m187.118103,117.233185l-0.228271,0.22818q-3.880219,4.564987 -8.445221,5.706238q-5.021454,0.913055 -10.042984,-2.05423l-25.335617,-14.379669q-5.249756,-3.195473 -6.162735,-7.303993q-0.91301,-4.108467 2.054245,-9.586426l41.769592,-72.126768q11.640701,-20.314164 26.705154,-11.868985l36.519943,20.99895q10.27121,5.934498 5.706207,16.662167l-6.619263,10.042953l-55.921051,63.681583" fill="#FFFFFF"/>
  <path id="svg_349" d="m76.808403,100.68631q6.847473,0 11.640724,4.793251q5.021469,5.021477 5.021469,11.86895q0,6.619247 -5.021469,11.640717q-4.793251,4.793213 -11.640724,4.793213q-6.847473,0 -11.640686,-4.793213q-5.0215,-5.021469 -5.0215,-11.640717q0,-6.847473 5.0215,-11.86895q4.793213,-4.793251 11.640686,-4.793251" fill="#5F8C19"/>
 </g>
</svg>