<?xml version="1.0"?>
<svg width="320" height="400" xmlns="http://www.w3.org/2000/svg">

 <g>
  <title>background</title>
  <rect fill="none" id="canvas_background" height="402" width="322" y="-1" x="-1"/>
 </g>
 <g>
  <title>Layer 1</title>
  <path id="svg_286" d="m24.35,438.299988l4.6,0.150024q1.349998,0.5 0.4,1.599976l-4.050001,2.5q-0.949999,0.5 -1.5,-0.549988l-0.699999,-2.600006q-0.050001,-1.199982 1.25,-1.100006" fill="#E5E5E5"/>
  <path id="svg_345" d="m304.938232,160.733276q-5.150024,42.285645 -47.977905,43.912079l-204.923187,0q-47.164886,-5.963379 -52.044098,-43.912079l0,-3.252838q0,-47.164795 44.454224,-80.505463q44.725342,-33.340683 107.882935,-33.340683q63.428589,0 108.153809,33.340683q44.454224,33.340668 44.454224,80.505463l0,3.252838m-142.307739,-71.560516q0,8.131866 5.96344,13.824219q5.692322,5.963348 13.824158,5.963348q8.131958,0 14.095276,-5.963348q5.692322,-5.692352 5.692322,-13.824219q0,-8.131866 -5.692322,-14.095245q-5.963318,-5.692291 -14.095276,-5.692291q-8.131836,0 -13.824158,5.692291q-5.96344,5.963379 -5.96344,14.095245m-80.234436,18.432251q-5.692261,-5.692322 -13.824158,-5.692322q-8.131897,0 -13.824249,5.692322q-5.963318,5.963379 -5.963318,14.095276q0,7.86084 5.963318,13.824158q5.692352,5.692322 13.824249,5.692322q8.131897,0 13.824158,-5.692322q5.963318,-5.963318 5.963318,-13.824158q0,-8.131897 -5.963318,-14.095276m134.175903,12.468903q4.336975,4.336975 10.300476,4.336975q5.963196,0 10.300354,-4.336975q4.336975,-4.337006 4.336975,-10.300415q0,-5.963318 -4.336975,-10.300385q-4.337158,-4.336945 -10.300354,-4.336945q-5.963501,0 -10.300476,4.336945q-4.337097,4.337067 -4.337097,10.300385q0,5.963409 4.337097,10.300415" fill="#80BE1F"/>
  <path id="svg_346" d="m216.57196,120.073914q-4.337097,-4.337006 -4.337097,-10.300415q0,-5.963318 4.337097,-10.300385q4.336975,-4.336945 10.300476,-4.336945q5.963196,0 10.300354,4.336945q4.336975,4.337067 4.336975,10.300385q0,5.963409 -4.336975,10.300415q-4.337158,4.336975 -10.300354,4.336975q-5.963501,0 -10.300476,-4.336975m-53.941467,-30.901154q0,-8.131866 5.96344,-14.095245q5.692322,-5.692291 13.824158,-5.692291q8.131958,0 14.095276,5.692291q5.692322,5.963379 5.692322,14.095245q0,8.131866 -5.692322,13.824219q-5.963318,5.963348 -14.095276,5.963348q-8.131836,0 -13.824158,-5.963348q-5.96344,-5.692352 -5.96344,-13.824219" fill="#8BCB27"/>
  <path id="svg_347" d="m82.396057,107.605011q5.963318,5.963379 5.963318,14.095276q0,7.86084 -5.963318,13.824158q-5.692261,5.692322 -13.824158,5.692322q-8.131897,0 -13.824249,-5.692322q-5.963318,-5.963318 -5.963318,-13.824158q0,-8.131897 5.963318,-14.095276q5.692352,-5.692322 13.824249,-5.692322q8.131897,0 13.824158,5.692322" fill="#5F8C19"/>
  <path id="svg_348" d="m60.637634,296.912689q-8.131958,0 -13.824219,5.692322q-5.963379,5.963379 -5.963379,14.095276q0,7.86084 5.963379,13.824158q5.692261,5.692322 13.824219,5.692322q8.131836,0 13.824097,-5.692322q5.96344,-5.963318 5.96344,-13.824158q0,-8.131897 -5.96344,-14.095276q-5.692261,-5.692322 -13.824097,-5.692322m72.915787,-12.468811q5.692276,5.963348 13.824142,5.963348q8.131851,0 14.095291,-5.963348q5.692291,-5.692322 5.692291,-13.824249q0,-8.131866 -5.692291,-14.095215q-5.96344,-5.692307 -14.095291,-5.692307q-8.131866,0 -13.824142,5.692307q-5.96344,5.963348 -5.96344,14.095215q0,8.131927 5.96344,13.824249m58.278427,-7.86084q-5.963409,0 -10.300415,4.337006q-4.337006,4.337006 -4.337006,10.300354q0,5.963348 4.337006,10.300415q4.337006,4.336975 10.300415,4.336975q5.963379,0 10.300323,-4.336975q4.336975,-4.337067 4.336975,-10.300415q0,-5.963348 -4.336975,-10.300354q-4.336945,-4.337006 -10.300323,-4.337006m-61.802246,-60.989059q53.941406,0 92.161255,38.219818q37.948608,37.948715 37.948608,91.890121l0,3.794861q-4.336945,48.249207 -40.930359,50.146576l-174.835297,0q-40.388275,-6.77655 -44.454163,-50.146576l0,-3.794861q0,-53.941406 37.9487,-91.890121q38.219757,-38.219818 92.161255,-38.219818" fill="#80BE1F"/>
  <path id="svg_349" d="m60.637634,296.912689q8.131836,0 13.824097,5.692322q5.96344,5.963379 5.96344,14.095276q0,7.86084 -5.96344,13.824158q-5.692261,5.692322 -13.824097,5.692322q-8.131958,0 -13.824219,-5.692322q-5.963379,-5.963318 -5.963379,-13.824158q0,-8.131897 5.963379,-14.095276q5.692261,-5.692322 13.824219,-5.692322" fill="#5F8C19"/>
  <path id="svg_350" d="m191.831848,276.583038q5.963379,0 10.300323,4.337006q4.336975,4.337006 4.336975,10.300354q0,5.963348 -4.336975,10.300415q-4.336945,4.336975 -10.300323,4.336975q-5.963409,0 -10.300415,-4.336975q-4.337006,-4.337067 -4.337006,-10.300415q0,-5.963348 4.337006,-10.300354q4.337006,-4.337006 10.300415,-4.337006m-58.278427,7.86084q-5.96344,-5.692322 -5.96344,-13.824249q0,-8.131866 5.96344,-14.095215q5.692276,-5.692307 13.824142,-5.692307q8.131851,0 14.095291,5.692307q5.692291,5.963348 5.692291,14.095215q0,8.131927 -5.692291,13.824249q-5.96344,5.963348 -14.095291,5.963348q-8.131866,0 -13.824142,-5.963348" fill="#8BCB27"/>
 </g>
</svg>